# xmcd
#
# Track frame offsets:
#	150
#	19012
#	34150
#	48025
#	65832
#	81707
#	98432
#	113820
#	133477
#	154320
#	171135
#	184605
#	198515
#	211527
#
# Disc length: 3015 seconds
#
# Revision: 3
# Processed by: cddbd v1.5.2PL0 Copyright (c) Steve Scherf et al.
# Submitted via: EasyCDDAExtractor 15.3.0.1
#
DISCID=bf0bc50e
DTITLE=Alejandra Guzman - Algo Natural
DYEAR=1999
DGENRE=Latin
TTITLE0=Enemigos
TTITLE1=Grita
TTITLE2=Si No Te Has Ido, Vete
TTITLE3=Algo Natural
TTITLE4=Volare
TTITLE5=Vuelvo A Besar
TTITLE6=Bye, Bye Love
TTITLE7=Paloma Herida
TTITLE8=Me Perdi En Tu Cuerpo
TTITLE9=Matame
TTITLE10=Que Mas Da
TTITLE11=Habia Olvidado
TTITLE12=Haz La Guerra Y El Amor
TTITLE13=Por Que Tengo Que Amarte
EXTD=
EXTT0=
EXTT1=
EXTT2=
EXTT3=
EXTT4=
EXTT5=
EXTT6=
EXTT7=
EXTT8=
EXTT9=
EXTT10=
EXTT11=
EXTT12=
EXTT13=
PLAYORDER=
